<svg height="60px" viewBox="0 0 512 512.001" width="60px" xmlns="http://www.w3.org/2000/svg"><path d="m459.203125 384.929688c-8.285156 0-15 6.71875-15 15v34.039062c0 26.484375-21.527344 48.03125-47.988281 48.03125h-118.558594c-8.28125 0-15 6.71875-15 15 0 8.285156 6.71875 15 15 15h118.558594c43.003906 0 77.988281-35.003906 77.988281-78.03125v-34.039062c0-8.285157-6.714844-15-15-15zm0 0" fill="#97e1ff"/><path d="m316.910156 472.679688v.101562c0 21.628906-17.597656 39.21875-39.21875 39.21875h-43.851562c-21.628906 0-39.21875-17.589844-39.21875-39.21875v-.101562c0-21.621094 17.589844-39.210938 39.21875-39.210938h43.851562c21.621094 0 39.21875 17.589844 39.21875 39.210938zm0 0" fill="#ffda00"/><path d="m456.429688 200.800781v15h-72.539063v-15c0-70.699219-57.480469-128.230469-128.128906-128.230469-70.640625 0-128.121094 57.53125-128.121094 128.230469v15h-72.539063v-15c0-53.628906 20.871094-104.0625 58.769532-141.980469 37.902344-37.929687 88.289062-58.820312 141.890625-58.820312 53.609375 0 104 20.890625 141.898437 58.820312 37.902344 37.917969 58.769532 88.351563 58.769532 141.980469zm0 0" fill="#d1effa"/><path d="m456.429688 200.800781v15h-72.539063v-15c0-70.699219-57.480469-128.230469-128.128906-128.230469v-72.570312c53.609375 0 104 20.890625 141.898437 58.820312 37.902344 37.917969 58.769532 88.351563 58.769532 141.980469zm0 0" fill="#97e1ff"/><path d="m0 230.839844v130.347656c0 24.667969 20.058594 44.738281 44.714844 44.738281h27.617187c30.496094 0 55.308594-24.828125 55.308594-55.339843v-164.480469h-82.925781c-24.65625 0-44.714844 20.066406-44.714844 44.734375zm0 0" fill="#00b2ff"/><path d="m467.285156 186.105469h-83.394531v164.480469c0 30.515624 24.8125 55.339843 55.308594 55.339843h28.085937c24.65625 0 44.714844-20.070312 44.714844-44.738281v-130.347656c0-24.667969-20.058594-44.734375-44.714844-44.734375zm0 0" fill="#0089ff"/><path d="m336.152344 206.238281c-8.285156 0-15 6.714844-15 15v41.476563h-21.144532c-2.917968 0-5.292968-2.378906-5.292968-5.304688v-36.171875c0-8.285156-6.714844-15-15-15s-15 6.714844-15 15v36.171875c0 19.46875 15.832031 35.304688 35.292968 35.304688h21.144532v41.480468c0 8.28125 6.714844 15 15 15s15-6.71875 15-15v-112.957031c0-8.285156-6.714844-15-15-15zm0 0" fill="#ffbc00"/><path d="m214.546875 206.238281h-39.167969c-8.285156 0-15 6.714844-15 15 0 8.285157 6.714844 15 15 15h39.167969c1.25 0 2.269531 1.023438 2.269531 2.28125v21.914063c0 1.257812-1.019531 2.28125-2.269531 2.28125h-21.898437c-17.796876 0-32.269532 14.480468-32.269532 32.28125v21.917968c0 17.800782 14.472656 32.28125 32.269532 32.28125h39.167968c8.28125 0 15-6.71875 15-15 0-8.285156-6.71875-15-15-15h-39.167968c-1.253907 0-2.269532-1.023437-2.269532-2.28125v-21.917968c0-1.257813 1.015625-2.28125 2.269532-2.28125h21.898437c17.792969 0 32.269531-14.480469 32.269531-32.28125v-21.914063c0-17.800781-14.476562-32.28125-32.269531-32.28125zm0 0" fill="#ffda00"/><path d="m316.910156 472.679688v.101562c0 21.628906-17.597656 39.21875-39.21875 39.21875h-21.929687v-78.53125h21.929687c21.621094 0 39.21875 17.589844 39.21875 39.210938zm0 0" fill="#ffbc00"/></svg>